<?xml version="1.0" standalone="no"?>
<!DOCTYPE svg PUBLIC "-//W3C//DTD SVG 20010904//EN"
 "http://www.w3.org/TR/2001/REC-SVG-20010904/DTD/svg10.dtd">
<svg version="1.0" xmlns="http://www.w3.org/2000/svg"
 width="300.000000pt" height="300.000000pt" viewBox="0 0 300.000000 300.000000"
 preserveAspectRatio="xMidYMid meet">

<g transform="translate(0.000000,300.000000) scale(0.100000,-0.100000)"
fill="#000000" stroke="none">
<path d="M760 2605 l0 -175 60 0 60 0 0 60 0 60 50 0 50 0 0 -60 0 -60 60 0
60 0 0 175 0 175 -60 0 -60 0 0 -55 0 -55 -50 0 -50 0 0 55 0 55 -60 0 -60 0
0 -175z"/>
<path d="M1150 2720 l0 -60 50 0 50 0 0 -115 0 -115 60 0 60 0 0 114 0 115 48
3 47 3 3 58 3 57 -161 0 -160 0 0 -60z"/>
<path d="M1520 2605 l0 -175 55 0 54 0 3 82 3 83 34 -53 c18 -28 37 -52 41
-52 4 0 23 24 41 52 l34 53 3 -83 3 -82 59 0 60 0 0 175 0 175 -64 0 -65 0
-31 -55 c-17 -30 -35 -55 -38 -55 -4 0 -21 24 -37 53 l-31 52 -62 3 -62 3 0
-176z"/>
<path d="M1960 2605 l0 -175 140 0 140 0 0 60 0 60 -80 0 -80 0 0 115 0 115
-60 0 -60 0 0 -175z"/>
<path d="M600 2247 c0 -64 161 -1812 167 -1818 5 -4 171 -52 370 -107 l363
-100 362 100 c200 55 366 103 371 107 6 6 167 1755 167 1819 l0 22 -900 0
-900 0 0 -23z m1466 -444 c-4 -54 -10 -106 -12 -115 -5 -17 -34 -18 -437 -18
l-432 0 9 -115 9 -115 414 0 c387 0 413 -1 413 -17 0 -58 -61 -678 -68 -684
-4 -4 -109 -35 -234 -69 l-227 -63 -228 63 c-125 34 -231 66 -236 69 -6 7 -37
282 -37 339 0 22 2 22 119 22 l118 0 7 -87 c3 -48 8 -88 10 -90 7 -7 221 -63
240 -63 11 0 72 14 136 31 l117 31 12 126 c6 70 11 135 11 145 0 16 -25 17
-390 17 l-390 0 -4 23 c-6 27 -57 613 -56 645 l0 22 571 0 571 0 -6 -97z"/>
</g>
</svg>
